<mxfile host="65bd71144e">
    <diagram id="tnvBiH2e31H3a_Slp5DE" name="Page-1">
        <mxGraphModel dx="526" dy="510" grid="1" gridSize="10" guides="1" tooltips="1" connect="1" arrows="1" fold="1" page="1" pageScale="1" pageWidth="1169" pageHeight="827" background="none" math="0" shadow="0">
            <root>
                <mxCell id="0"/>
                <mxCell id="1" parent="0"/>
                <mxCell id="9" value="" style="edgeStyle=none;html=1;exitX=1.025;exitY=0.12;exitDx=0;exitDy=0;exitPerimeter=0;entryX=0.006;entryY=0.163;entryDx=0;entryDy=0;entryPerimeter=0;" edge="1" parent="1" source="3" target="5">
                    <mxGeometry relative="1" as="geometry">
                        <Array as="points"/>
                    </mxGeometry>
                </mxCell>
                <mxCell id="3" value="&lt;h6&gt;User&lt;/h6&gt;" style="whiteSpace=wrap;html=1;aspect=fixed;fillColor=#60a917;fontColor=#ffffff;strokeColor=#2D7600;" parent="1" vertex="1">
                    <mxGeometry x="10" y="10" width="80" height="80" as="geometry"/>
                </mxCell>
                <mxCell id="10" value="" style="edgeStyle=none;html=1;exitX=1.047;exitY=0.146;exitDx=0;exitDy=0;exitPerimeter=0;entryX=-0.003;entryY=0.146;entryDx=0;entryDy=0;entryPerimeter=0;" edge="1" parent="1" source="5" target="7">
                    <mxGeometry relative="1" as="geometry"/>
                </mxCell>
                <mxCell id="12" style="edgeStyle=none;html=1;exitX=-0.055;exitY=0.858;exitDx=0;exitDy=0;exitPerimeter=0;" edge="1" parent="1" source="5">
                    <mxGeometry relative="1" as="geometry">
                        <mxPoint x="100" y="80" as="targetPoint"/>
                        <Array as="points">
                            <mxPoint x="130" y="80"/>
                        </Array>
                    </mxGeometry>
                </mxCell>
                <mxCell id="5" value="&lt;h6&gt;Profile&lt;/h6&gt;" style="whiteSpace=wrap;html=1;aspect=fixed;fillColor=#1ba1e2;fontColor=#ffffff;strokeColor=#006EAF;" vertex="1" parent="1">
                    <mxGeometry x="170" y="10" width="80" height="80" as="geometry"/>
                </mxCell>
                <mxCell id="13" value="" style="edgeStyle=none;html=1;entryX=1.03;entryY=0.884;entryDx=0;entryDy=0;entryPerimeter=0;exitX=-0.046;exitY=0.875;exitDx=0;exitDy=0;exitPerimeter=0;" edge="1" parent="1" source="7" target="5">
                    <mxGeometry relative="1" as="geometry"/>
                </mxCell>
                <mxCell id="15" value="" style="edgeStyle=none;html=1;exitX=1.021;exitY=0.128;exitDx=0;exitDy=0;exitPerimeter=0;entryX=-0.01;entryY=0.154;entryDx=0;entryDy=0;entryPerimeter=0;" edge="1" parent="1" source="7" target="8">
                    <mxGeometry relative="1" as="geometry"/>
                </mxCell>
                <mxCell id="7" value="&lt;h6&gt;Games&lt;/h6&gt;" style="whiteSpace=wrap;html=1;aspect=fixed;fillColor=#6a00ff;fontColor=#ffffff;strokeColor=#3700CC;" vertex="1" parent="1">
                    <mxGeometry x="320" y="10" width="80" height="80" as="geometry"/>
                </mxCell>
                <mxCell id="14" value="" style="edgeStyle=none;html=1;entryX=1.03;entryY=0.858;entryDx=0;entryDy=0;entryPerimeter=0;exitX=-0.053;exitY=0.91;exitDx=0;exitDy=0;exitPerimeter=0;" edge="1" parent="1" source="8" target="7">
                    <mxGeometry relative="1" as="geometry"/>
                </mxCell>
                <mxCell id="8" value="&lt;h6&gt;Gener&lt;/h6&gt;" style="whiteSpace=wrap;html=1;aspect=fixed;fillColor=#d80073;fontColor=#ffffff;strokeColor=#A50040;" vertex="1" parent="1">
                    <mxGeometry x="490" y="10" width="80" height="80" as="geometry"/>
                </mxCell>
                <mxCell id="16" value="1:n&lt;br&gt;" style="text;html=1;align=center;verticalAlign=middle;resizable=0;points=[];autosize=1;strokeColor=none;fillColor=none;" vertex="1" parent="1">
                    <mxGeometry x="105" width="30" height="20" as="geometry"/>
                </mxCell>
                <mxCell id="17" value="1:1" style="text;html=1;align=center;verticalAlign=middle;resizable=0;points=[];autosize=1;strokeColor=none;fillColor=none;" vertex="1" parent="1">
                    <mxGeometry x="115" y="60" width="30" height="20" as="geometry"/>
                </mxCell>
                <mxCell id="18" value="1 para muitos" style="text;html=1;align=center;verticalAlign=middle;resizable=0;points=[];autosize=1;strokeColor=none;fillColor=none;" vertex="1" parent="1">
                    <mxGeometry x="75" y="130" width="90" height="20" as="geometry"/>
                </mxCell>
                <mxCell id="20" value="1:n" style="text;html=1;align=center;verticalAlign=middle;resizable=0;points=[];autosize=1;strokeColor=none;fillColor=none;" vertex="1" parent="1">
                    <mxGeometry x="265" width="30" height="20" as="geometry"/>
                </mxCell>
                <mxCell id="21" value="n:1" style="text;html=1;align=center;verticalAlign=middle;resizable=0;points=[];autosize=1;strokeColor=none;fillColor=none;" vertex="1" parent="1">
                    <mxGeometry x="275" y="60" width="30" height="20" as="geometry"/>
                </mxCell>
                <mxCell id="22" value="&amp;nbsp;N par N" style="rounded=1;whiteSpace=wrap;html=1;fillColor=default;" vertex="1" parent="1">
                    <mxGeometry x="220" y="110" width="120" height="60" as="geometry"/>
                </mxCell>
                <mxCell id="23" value="1:1" style="text;html=1;align=center;verticalAlign=middle;resizable=0;points=[];autosize=1;strokeColor=none;fillColor=none;" vertex="1" parent="1">
                    <mxGeometry x="435" width="30" height="20" as="geometry"/>
                </mxCell>
                <mxCell id="24" value="n:1" style="text;html=1;align=center;verticalAlign=middle;resizable=0;points=[];autosize=1;strokeColor=none;fillColor=none;" vertex="1" parent="1">
                    <mxGeometry x="425" y="60" width="30" height="20" as="geometry"/>
                </mxCell>
                <mxCell id="25" value="Muittos para 1" style="rounded=1;whiteSpace=wrap;html=1;fillColor=default;" vertex="1" parent="1">
                    <mxGeometry x="390" y="110" width="120" height="60" as="geometry"/>
                </mxCell>
                <mxCell id="27" value="1 para muitos&amp;nbsp;" style="rounded=1;whiteSpace=wrap;html=1;fillColor=default;" vertex="1" parent="1">
                    <mxGeometry x="60" y="110" width="120" height="60" as="geometry"/>
                </mxCell>
            </root>
        </mxGraphModel>
    </diagram>
</mxfile>